<svg xmlns="http://www.w3.org/2000/svg" xmlns:xlink="http://www.w3.org/1999/xlink" viewBox="0 0 181.84 45.84"><defs><style>.cls-1{filter:url(#usqEqE);}.cls-2{fill:#fff;}</style><filter id="usqEqE"><feOffset dy="7.81" input="SourceAlpha"/><feGaussianBlur stdDeviation="6.69" result="blur"/><feFlood/><feComposite operator="in" in2="blur"/><feComposite in="SourceGraphic"/></filter></defs><g id="Layer_2" data-name="Layer 2"><g id="usqEqE-2" data-name="usqEqE" class="cls-1"><path class="cls-2" d="M42.06,1.78a10.83,10.83,0,0,1,1.64-.33c5,0,9.91,0,14.87,0,1.23,0,1.71.45,1.66,1.69-.08,1.65,0,3.3,0,5a2.77,2.77,0,0,0,.58,1.81c.41-.77.78-1.55,1.22-2.3C65.12,2.28,70,.44,75.87.76,80.92,1,84.79,3.3,86.5,8a34,34,0,0,1,1.91,10.21c.25,6.4.07,12.83-.13,19.24a4.89,4.89,0,0,0,2.66,5c1.08.6,2,1.39,3.08,2.1l-.19.51H70.41a10.57,10.57,0,0,1,1.87-1.65c3.27-1.6,4.24-4.17,4.09-7.74-.29-6.78-.16-13.58-.26-20.37a14.93,14.93,0,0,0-.61-3c-1.41-6-7.45-6.76-11.61-3.94-2.41,1.64-3.88,3.64-3.77,6.93.26,7.49.15,15,0,22.48a4.46,4.46,0,0,0,2.35,4.39c1.22.72,2.33,1.62,3.49,2.43l-.18.48H42.27a14.66,14.66,0,0,1,2.11-1.72c3-1.55,4.18-3.79,4.06-7.35-.3-8.75-.16-17.53-.06-26.29A5.16,5.16,0,0,0,46,5C44.75,4.11,43.65,3.07,42.06,1.78Z"/><path class="cls-2" d="M181.84,38.8c0,3.06-2.49,5.79-6.12,6.68-2.57.63-5.27.54-7.26-1.23-1.75-1.56-2.93-3.76-4.45-5.81-.1.14-.42.62-.72,1.11a13.74,13.74,0,0,1-18.79,4.14A12.26,12.26,0,0,1,143.72,24c5.92-4.57,12.48-4.82,19.29-2.16.35.14.69.31,1,.46.05,0,.13,0,.19,0s.3-.13.3-.2c.3-5.17,1.2-10.38-.75-15.42a6.87,6.87,0,0,0-4.5-4.33c-3.93-1.23-5.11-.75-7,2.88-1.55,3-3.09,6-4.66,9a8,8,0,0,1-1.05,1.2c-1.26-3-2.44-5.81-3.58-8.61-1.38-3.41-1.41-3.63,2.27-4.42a85.88,85.88,0,0,1,14-2.25A25.48,25.48,0,0,1,168.7,2c5.28,1.9,7.22,6.58,7.49,11.64.35,6.52,0,13.07-.07,19.61,0,.89-.08,1.79,0,2.67C176.32,39.86,178.3,40.92,181.84,38.8Zm-17.23-9h.11c0-1.65.06-3.3,0-4.95a2,2,0,0,0-.83-1.47c-3.75-1.7-9.29.07-11.46,3.56a10.77,10.77,0,0,0-1.19,7.37A6.35,6.35,0,0,0,158.14,40a6.64,6.64,0,0,0,6.47-6.52C164.62,32.22,164.61,31,164.61,29.81Z"/><path class="cls-2" d="M40.14,31.39c-.17.62-.29,1.26-.5,1.86-2.33,6.87-7,11-14.22,12.17A22.92,22.92,0,0,1,9.63,42.67,18.3,18.3,0,0,1,.77,30.17C-.53,23.79-.31,17.55,2.42,11.54s7.75-9.21,14-10.65c1.89-.43,3.9-1.07,5.76-.84,6.59.83,12.94,2.37,16.58,8.82,1.57,2.78,1.93,5.86,2.06,9,.07,1.62-.57,2.23-2.24,2.22-7.94-.06-15.87,0-23.81,0-2.5,0-2.58.09-2.49,2.57a21,21,0,0,0,2.33,9.91c4.65,8.28,16.64,9,23,1.42.72-.86,1.36-1.81,2-2.72Zm-19.39-13c2.29,0,4.57,0,6.85,0,1.24,0,1.77-.5,1.64-1.71-.3-2.83-.39-5.71-1-8.48-.79-3.87-3.15-6.13-6.12-6.43a7,7,0,0,0-7.54,4.92C13.46,10,13,13.6,12.36,17.06c-.23,1.17.62,1.36,1.54,1.36Z"/><path class="cls-2" d="M134.6,31.1c-1.18,7.77-6.07,12.56-13.95,14.23-9.41,2-19.35-2-23.15-10-4.24-8.92-3.92-18,1.32-26.58C101.57,4.29,106.1,2,111.18.89A18.47,18.47,0,0,1,116.57,0c5,.44,9.78,1.5,13.74,4.85,4.33,3.66,5.41,8.54,5.16,13.91-.07,1.46-1.15,1.26-2.08,1.26H109.57c-.38,0-.85-.14-1.13,0-.53.34-1.36.84-1.37,1.28a20.61,20.61,0,0,0,2.88,12c5.5,8.61,18.26,6.89,23.1-.24C133.53,32.46,134.08,31.79,134.6,31.1ZM115.33,18.41c2.35,0,4.7,0,7,0,1.1,0,1.69-.41,1.62-1.56a69,69,0,0,0-.58-7.2c-.49-2.76-1.34-5.51-4-7a6.81,6.81,0,0,0-9.74,3.7c-1.33,3.37-1.79,7.08-2.59,10.65-.24,1.08.36,1.48,1.4,1.46C110.76,18.4,113,18.41,115.33,18.41Z"/></g></g></svg>