<svg xmlns="http://www.w3.org/2000/svg" xmlns:xlink="http://www.w3.org/1999/xlink" viewBox="0 0 162.93 46.18"><defs><style>.cls-1{filter:url(#_9CxtJ8);}.cls-2{fill:#fff;}</style><filter id="_9CxtJ8"><feOffset dy="7.81" input="SourceAlpha"/><feGaussianBlur stdDeviation="6.69" result="blur"/><feFlood/><feComposite operator="in" in2="blur"/><feComposite in="SourceGraphic"/></filter></defs><g id="Layer_2" data-name="Layer 2"><g id="_9CxtJ8-2" data-name="9CxtJ8" class="cls-1"><path class="cls-2" d="M54.74,23.76c1.48,1.66,2.95,3.08,4.13,4.71A6.94,6.94,0,0,1,60.27,32c.16,4.41,0,8.84.06,13.26,0,.74-.4.86-1,.86-2.11,0-4.23,0-6.34.06-.93,0-1.19-.36-1.2-1.21,0-3.09-.1-6.17-.17-9.25A7.91,7.91,0,0,0,45,28.06c-3.63-.68-3.89-.48-4,3.11-.08,4.5-.13,9-.2,13.51,0,.44,0,.87-.06,1.44-2.7,0-5.32,0-8,0-.22,0-.61-.67-.61-1-.09-3.61-.12-7.22-.16-10.83,0-1.66-.06-3.33-.05-5,0-.83-.28-1.29-1.19-1.29-4.55,0-9.11,0-13.66,0-1.1,0-1.65.44-1.64,1.68,0,5-.05,10-.08,15v1.59c-2.89,0-5.64,0-8.38,0-.25,0-.66-.55-.7-.88a27.89,27.89,0,0,1-.13-3c0-4,0-8.11-.06-12.17,0-1.68,0-1.71-1.65-1.75s-3,0-4.55,0V19.18c1.68,0,3.31-.07,4.92,0,1.09.06,1.37-.32,1.36-1.38A16.25,16.25,0,0,1,11.91,4.74,13.37,13.37,0,0,1,21,1.21c2.56,0,5.12,0,7.68,0,.85,0,1.13.26,1.1,1.12-.07,2.11-.12,4.22,0,6.33,0,1.24-.42,1.6-1.6,1.58-2.36,0-4.72,0-7.07.08a6.32,6.32,0,0,0-5.47,5.47c-.09,3-.09,3.05,3,3,3.82,0,7.64,0,11.45,0,1.15,0,1.62-.27,1.61-1.57,0-4.87.09-9.74.11-14.61,0-1,.27-1.49,1.45-1.46,5.52.15,11,.14,16.57.31A10.9,10.9,0,0,1,60.17,12a13.07,13.07,0,0,1-4.06,10.3C55.64,22.76,55.22,23.25,54.74,23.76Zm-13.94-9c0,1.13,0,2.26,0,3.4,0,.78.25,1.07,1.05,1.05,2.14-.05,4.29,0,6.43-.1a4.16,4.16,0,0,0,2.24-1c1.25-1.07,1.69-4.46.67-5.74a5,5,0,0,0-2.69-2,56.85,56.85,0,0,0-6.79-.11c-.69,0-.92.27-.91.94C40.83,12.39,40.8,13.56,40.8,14.74Z"/><path class="cls-2" d="M134.51,32.86c0,2.21,0,4.23,0,6.25s-.08,3.9-.06,5.84c0,.86-.26,1.24-1.19,1.22-2.35,0-4.7,0-7.12,0a9.5,9.5,0,0,1-.11-1q.07-15.39.17-30.78c0-5.41,2.88-9.2,7.46-11.51C140.77-.74,151.12,1.08,154.8,11a9.44,9.44,0,0,1,.53,3.21q.06,15,0,30.06c0,1.85,0,1.85-1.89,1.85-1.67,0-3.33-.08-5,0-1.05,0-1.31-.37-1.31-1.34,0-3.44-.13-6.89-.12-10.34,0-1.19-.39-1.65-1.62-1.63C141.9,32.89,138.37,32.86,134.51,32.86Zm5.88-9.38v0c1.46,0,2.92-.05,4.38,0,1.17.05,1.61-.48,1.58-1.57,0-2.67,0-5.35-.16-8a3.93,3.93,0,0,0-.63-1.8,6.41,6.41,0,0,0-8.7-1.64,5.26,5.26,0,0,0-2.37,4.05c-.07,2.55,0,5.1,0,7.65,0,1,.43,1.29,1.31,1.29C137.31,23.47,138.85,23.48,140.39,23.48Z"/><path class="cls-2" d="M87,19.39V28.2c-1.5,0-3,0-4.47,0-2.23,0-4.46.11-6.7.1-2,0-3.06,1.29-3.85,2.87a3.68,3.68,0,0,0,.67,4.29,4.63,4.63,0,0,0,4,1.9c3.36-.12,6.74,0,10.21,0v8.74c-.37,0-.72.09-1.07.09-4.14,0-8.29-.12-12.43-.06C67,46.19,60.68,41,62.82,32.27A13,13,0,0,1,67.4,25c.91-.72.82-1.27.11-2a15,15,0,0,1-4.08-5.83c-1.37-4.16-1.85-8.32,1.29-12a10.21,10.21,0,0,1,7.72-3.85c4.42-.07,8.85-.08,13.28-.18,1.06,0,1.31.37,1.27,1.34-.08,2-.15,4.06-.06,6.08.06,1.23-.32,1.62-1.54,1.61-3.21,0-6.42.08-9.63.11a4.28,4.28,0,0,0-3.61,6.23c.91,1.56,2.06,2.73,4.25,2.62,3.24-.16,6.49,0,9.74.1C86.42,19.29,86.69,19.35,87,19.39Z"/><path class="cls-2" d="M102.6,10.23H89.21c0-2.88,0-5.54,0-8.2,0-.73.61-.83,1.24-.83,2.72,0,5.44,0,8.16,0,5.4,0,10.8.06,16.2.09.36,0,.72.06,1.25.11-.14.45-.22.83-.37,1.18Q107.36,23.18,99,43.8c-.17.41-.39.81-.52,1.23a1.46,1.46,0,0,1-1.7,1.14c-2.34-.07-4.69,0-7.35,0,4.55-12,9-23.74,13.51-35.5Z"/><path class="cls-2" d="M127.16,1.18c-1.7,4.24-3.28,8.14-4.85,12.05l-9,22.23c-.09.22-.15.46-.24.69-.37.89,0,1.29.89,1.31l7.92.14c.39,0,.79,0,1.27.07v8.42H100.13a4.67,4.67,0,0,1,.17-.86C106,31.14,111.76,17.06,117.42,2.94a2.42,2.42,0,0,1,2.78-1.8C122.41,1.28,124.65,1.18,127.16,1.18Z"/><path class="cls-2" d="M159.17,7.48a3.73,3.73,0,0,1-3.65-3.77A3.84,3.84,0,0,1,159.14,0a4.05,4.05,0,0,1,3.79,3.74A4,4,0,0,1,159.17,7.48Zm0-7.08a3.34,3.34,0,0,0-3.19,3.32,3.42,3.42,0,0,0,3.27,3.4,3.74,3.74,0,0,0,3.37-3.4A3.74,3.74,0,0,0,159.13.4Z"/><path class="cls-2" d="M160.18,5.29c-1.32-1.49-1.45-1.51-2.28,0,0-1.32-.45-2.48.37-3.73a7.34,7.34,0,0,0,.4,2c.09.18.94.22,1.18,0s.46-.86.78-1.56a5.51,5.51,0,0,1,.11,1.41A13.15,13.15,0,0,1,160.18,5.29Z"/></g></g></svg>