<svg xmlns="http://www.w3.org/2000/svg" xmlns:xlink="http://www.w3.org/1999/xlink" viewBox="0 0 231.44 62.77"><defs><style>.cls-1{filter:url(#kIjk7Y);}.cls-2{fill:#fff;}</style><filter id="kIjk7Y"><feOffset dy="7.81" input="SourceAlpha"/><feGaussianBlur stdDeviation="6.69" result="blur"/><feFlood/><feComposite operator="in" in2="blur"/><feComposite in="SourceGraphic"/></filter></defs><g id="Layer_2" data-name="Layer 2"><g id="kIjk7Y-2" data-name="kIjk7Y" class="cls-1"><path class="cls-2" d="M222,57.46a33.1,33.1,0,0,1-3.68,2.9c-3.34,1.93-7.06,1.85-10.65,1.22-6.44-1.11-10.4-5.44-12.32-11.34a28.16,28.16,0,0,1,1.09-21.45c2.41-5,6.32-8.33,12-9.07,4.18-.55,8.17-.14,11.73,2.41a1.12,1.12,0,0,0,1,.18,1.31,1.31,0,0,0,.33-.95c0-6.2,0-12.4-.08-18.6,0-1.18.46-1.44,1.45-1.44,2.4,0,4.8,0,7.19,0,.93,0,1.4.32,1.4,1.39q-.1,15.72-.1,31.44,0,12.66.08,25.33c0,1.37-.49,1.86-1.86,1.78a46.33,46.33,0,0,0-5,0c-1.39.06-2.2-.31-2.15-1.89A7.74,7.74,0,0,0,222,57.46Zm.23-16.55-.44-.09a16,16,0,0,0-1.63-8.61,7.7,7.7,0,0,0-6.57-4.33,7.47,7.47,0,0,0-7.76,4.21c-2.57,5.41-3,11.14-.33,16.73,1.41,3,3.73,5,7.29,5a7.66,7.66,0,0,0,7.62-4.95C221.39,46.36,221.64,43.57,222.21,40.91Z"/><path class="cls-2" d="M133.74,56.93a16.92,16.92,0,0,0-1.47,1.22,15.16,15.16,0,0,1-5.61,3.48,12,12,0,0,1-6.19.87c-8.52-.89-16-8.25-10.87-18.44,1.79-3.55,5.31-5.18,9.16-5.85s7.62-1.12,11.41-1.82c3.08-.57,4-2.82,2.38-5.52a6,6,0,0,0-4.67-3c-3.44-.39-6.61,0-8.78,3.09a7.52,7.52,0,0,0-1.1,2.53c-.27,1-.84,1.4-1.82,1.19q-3.12-.67-6.24-1.42a1.28,1.28,0,0,1-1-1.75,14.25,14.25,0,0,1,8.24-10,21.91,21.91,0,0,1,15.59-.9,13.44,13.44,0,0,1,10.13,13.27c.13,7.51,0,15,0,22.53,0,1.14.08,2.29.19,3.43s-.34,1.46-1.33,1.45c-2.08,0-4.16,0-6.24,0-1.09,0-1.51-.48-1.54-1.49C133.94,59,133.84,58.15,133.74,56.93Zm-.56-11.6c-.05-2.61-.15-2.69-2.62-2.14-.35.08-.72.09-1.08.15a70.32,70.32,0,0,0-8,1.52,5.88,5.88,0,0,0-3.24,2.59c-1.73,3.31.86,7.27,4.86,7.31C129,54.82,133,51.85,133.18,45.33Z"/><path class="cls-2" d="M151.74,40.69c0-6.25,0-12.51,0-18.77,0-1.2.42-1.53,1.58-1.45a41.71,41.71,0,0,0,5,0c1.33-.08,2,.43,2,1.74a2.11,2.11,0,0,0,0,.62c.18.56.4,1.11.6,1.66a10.43,10.43,0,0,0,1.4-1.05,12.66,12.66,0,0,1,7-3.55c5.46-1.06,10.3.07,14,4.47a13.51,13.51,0,0,1,2.94,8.72c.07,8.71,0,17.42.06,26.13,0,1.87-.23,2.06-2.06,2-2.08,0-4.16,0-6.24,0-1.28,0-1.75-.42-1.74-1.73.05-5.52,0-11,0-16.57,0-2.6.09-5.21.1-7.81a5.68,5.68,0,0,0-.24-1.84c-1-3.17-2.43-4.25-5.48-4.37-3.74-.15-6.44,1.33-7.6,4.73a25,25,0,0,0-1.37,7.3c-.16,6.2,0,12.41.06,18.61,0,1.07-.35,1.69-1.52,1.68-2.4,0-4.79,0-7.19,0-1.13,0-1.34-.64-1.34-1.63,0-6.31,0-12.62,0-18.93Z"/><path class="cls-2" d="M17.15,62.77C11.49,62.15,6.65,61.13,3.22,57A28.2,28.2,0,0,1,.05,51.66,1.69,1.69,0,0,1,.6,50.08c2.29-.82,4.64-1.49,7-2.12a1.19,1.19,0,0,1,1,.63c1.17,4.61,4.77,6.25,9.14,6,2.26-.14,4.56-2.1,4.73-4.07.2-2.37-1.13-3.86-4.45-4.74-2.9-.78-5.93-1.16-8.75-2.16C2.26,41.12-.61,34.84,2,28.06a12.71,12.71,0,0,1,8.76-7.62,18.52,18.52,0,0,1,13.41.88,13.29,13.29,0,0,1,6.86,7.56c.64,1.65.34,2-1.33,2.53s-3.47,1.06-5.17,1.69c-.94.35-1.17-.15-1.48-.83-1.81-4-4-5.23-8.28-4.81a4.7,4.7,0,0,0-4.38,3.8c-.29,2.46,1.59,4.35,4.29,4.82,4.49.78,9.08,1.31,12.89,4.27a11.37,11.37,0,0,1,3.86,12.14A12.27,12.27,0,0,1,22,61.6Z"/><path class="cls-2" d="M74.66,45.24c0,4.74,0,9.49,0,14.23,0,1.45-.42,1.9-1.92,1.76a41.92,41.92,0,0,0-5.93,0c-1.39.07-2-.34-1.94-1.83.06-9.43,0-18.86,0-28.29,0-1.66-.32-1.91-1.92-1.82s-3,.06-4.52.09c-1.05,0-1.5-.5-1.48-1.54,0-1.93.08-3.86,0-5.78,0-1.14.37-1.72,1.55-1.51,3.3.6,7.14-2.45,7.21-6.72,0-1.46,0-2.92,0-4.37C65.67,8.32,66,8,67.15,8c2.08.08,4.17.06,6.24,0,1,0,1.3.34,1.29,1.25-.05,3.13,0,6.26-.08,9.38,0,1.72.23,2,2,1.94s3.65,0,5.47-.07c.89,0,1.37.28,1.36,1.25,0,2.08,0,4.17,0,6.25,0,1-.46,1.41-1.43,1.39-1.88,0-3.76,0-5.62-.12-1.32-.11-1.79.3-1.77,1.62,0,4.79,0,9.59,0,14.38Z"/><path class="cls-2" d="M100.36,34.57q0,12.34,0,24.7c0,2,0,1.95-2,1.89a61.83,61.83,0,0,0-6.24.06c-1.33.09-1.79-.33-1.78-1.63q.09-24.08.12-48.15c0-3.55,0-3.55,3.49-3.55a42.91,42.91,0,0,0,4.68-.08c1.38-.16,1.74.29,1.74,1.59,0,6.51,0,13,0,19.54v5.63Z"/><path class="cls-2" d="M40.19,40.88c0-6.25,0-12.51,0-18.76,0-1.35.3-1.8,1.78-1.64a38.7,38.7,0,0,0,6.09,0c1.46-.09,1.91.43,1.9,1.86q-.11,17.43-.08,34.86c0,3.86,0,3.87-3.73,4-1.61,0-3.22,0-4.83.08-1.22,0-1.11-.82-1.11-1.61Z"/><path class="cls-2" d="M51.22,6.49A6.18,6.18,0,0,1,44.79,13,6.29,6.29,0,0,1,38.26,6.5,6.41,6.41,0,0,1,44.83,0C48-.1,51.61,3.2,51.22,6.49Z"/></g></g></svg>