<svg xmlns="http://www.w3.org/2000/svg" xmlns:xlink="http://www.w3.org/1999/xlink" viewBox="0 0 410.32 38.75"><defs><style>.cls-1{filter:url(#XMJtN1);}.cls-2{fill:#fff;}</style><filter id="XMJtN1"><feOffset dy="7.81" input="SourceAlpha"/><feGaussianBlur stdDeviation="6.69" result="blur"/><feFlood/><feComposite operator="in" in2="blur"/><feComposite in="SourceGraphic"/></filter></defs><g id="Layer_2" data-name="Layer 2"><g id="XMJtN1-2" data-name="XMJtN1" class="cls-1"><path class="cls-2" d="M351.83,16a47.76,47.76,0,0,0-.09-6.29,2.91,2.91,0,0,0-2-1.71,82,82,0,0,0-32.22.13l-3.17.67a45.13,45.13,0,0,1,.08-5.49c.08-.55,1.12-1.31,1.78-1.38C323,1.23,329.81.09,336.59.24,343,.38,349.46,1.89,355.9,2.8c1.77.25,2.41,1.14,2.39,3-.12,9.07-.1,18.13,0,27.2,0,1.62-.4,2.41-2,2.84a86.8,86.8,0,0,1-44.09.06c-1.77-.45-2.19-1.35-2.15-3,.1-4.21.14-8.43,0-12.64-.07-2,.54-2.8,2.44-3.29a88.28,88.28,0,0,1,36-1.56C349.4,15.58,350.42,15.75,351.83,16ZM333.58,32.59c4.65-.42,8.76-.69,12.85-1.19,5.46-.68,5.35-.76,5.47-6.31,0-2.08-.75-2.7-2.64-3A83,83,0,0,0,322,21.64c-7,1.1-5.44,0-5.72,6.53-.08,1.88.73,2.55,2.41,2.73C323.83,31.46,328.94,32.06,333.58,32.59Z"/><path class="cls-2" d="M96.25,15.79a46.86,46.86,0,0,0-.1-6.31c-.09-.62-1.36-1.39-2.19-1.55a82.29,82.29,0,0,0-33.59.52L59,8.75c-.14-.22-.29-.34-.29-.46,0-7.24-1.39-5.92,5.54-7.06a85.11,85.11,0,0,1,35.93,1.51c1.7.45,2.43,1.13,2.41,3.05-.11,9.06-.09,18.12,0,27.18,0,1.69-.43,2.55-2.17,3a86.83,86.83,0,0,1-44.07-.1,2.25,2.25,0,0,1-1.95-2.66c.1-4.37.14-8.74,0-13.11-.07-1.9.66-2.61,2.4-3.07A88.3,88.3,0,0,1,92.74,15.4c.79.12,1.57.27,2.35.38A9.25,9.25,0,0,0,96.25,15.79ZM78.07,32.59c4.68-.42,8.74-.6,12.73-1.21,6.81-1,5.23-.14,5.51-6.49.08-1.84-.64-2.47-2.36-2.78a83.82,83.82,0,0,0-27.28-.5c-5.9.89-5.82.9-5.84,6.64,0,1.74.61,2.45,2.22,2.63C68.25,31.45,73.45,32.06,78.07,32.59Z"/><path class="cls-2" d="M365.05,29.18a61.79,61.79,0,0,0,23.05,3c4.59-.2,9.15-.93,13.73-1.37,1.83-.18,2.18-1.25,2-2.8s.83-3.67-2-4c-6.71-.73-13.43-1.37-20.1-2.35-5.18-.76-10.28-2-15.42-3a2.09,2.09,0,0,1-1.92-2.46c.1-3.65.08-7.31,0-11A2,2,0,0,1,366.17,3a85.27,85.27,0,0,1,41.27-.9c1.49.32,2,1,1.86,2.4s0,2.83,0,4.22c-4.82-.68-9.41-1.51-14-2a80.24,80.24,0,0,0-22.3,1.13c-1.44.26-2.31.76-2.19,2.44s-.31,3.27,2.05,3.56c5.59.69,11.17,1.41,16.75,2.2,6,.85,12.08,1.78,18.11,2.68,1.94.29,2.78,1.23,2.66,3.38-.21,3.72-.13,7.47,0,11.2a2.13,2.13,0,0,1-1.85,2.49,75.76,75.76,0,0,1-25,2.75c-5.29-.27-10.54-1.3-15.81-1.91-2.08-.24-2.86-1.24-2.6-3.31A35.85,35.85,0,0,0,365.05,29.18Z"/><path class="cls-2" d="M157.37.34h6.18V8.15c5.73-.44,11.17-1,16.62-1.24a73.79,73.79,0,0,1,23.11,2.76c1.55.44,2.2,1,2.17,2.73-.11,6.75-.11,13.52,0,20.27a2.4,2.4,0,0,1-2.16,2.78,85.88,85.88,0,0,1-44.08,0c-1.19-.31-2.13-.63-2.12-2.3.08-10.41,0-20.83,0-31.25A10.07,10.07,0,0,1,157.37.34Zm23.82,12.54c-5.1.59-10.3,1.2-15.5,1.79-1.63.18-2.27.93-2.2,2.66.14,3.49.11,7,0,10.48,0,1.54.44,2.28,2,2.58a84.27,84.27,0,0,0,31.5,0A2,2,0,0,0,199,28c-.09-3.5-.15-7,0-10.49.09-2-.71-2.71-2.5-2.9C191.45,14.06,186.41,13.47,181.19,12.88Z"/><path class="cls-2" d="M41.9,37.13c0-8.84-.13-17.19.08-25.52.06-2.68-.83-3.52-3.33-3.93a88,88,0,0,0-29.9.18c-1.71.31-2.35,1-2.32,2.8.1,7.79,0,15.58,0,23.37v2.85H.18c0-.73-.13-1.43-.13-2.12,0-9.7,0-19.4,0-29.1C0,4,.45,3.27,2.06,2.86a86.66,86.66,0,0,1,44.31,0,2.25,2.25,0,0,1,2,2.64c-.07,9.54-.13,19.08,0,28.62,0,2.48-.76,3.3-3.12,3A28,28,0,0,0,41.9,37.13Z"/><path class="cls-2" d="M268.62,7.16c6.73-.41,13-1,19.22-1.1,4-.07,7.91.63,11.88.84,1.92.1,2.4,1,2.24,2.73-.12,1.25,0,2.51,0,3.91-4.17-.37-8.11-1.07-12-1-6.26.13-12.51.77-18.76,1.2-1.91.13-2.69,1-2.58,3.08.18,3.64.13,7.31,0,11-.06,1.74.65,2.36,2.24,2.66a83.37,83.37,0,0,0,32-.23l1.35-.24v6.7c-4.28.47-8.65,1.12-13,1.41a82,82,0,0,1-26.46-2.52c-1.87-.5-2.49-1.35-2.47-3.3.11-9.78,0-19.56.09-29.34,0-.89.46-2.49.86-2.54a21.66,21.66,0,0,1,5.14.19c.17,0,.31,1,.32,1.51C268.65,3.81,268.62,5.55,268.62,7.16Z"/><path class="cls-2" d="M256.09,3.27v14c0,5.09-.07,10.17,0,15.26,0,1.61-.4,2.4-2,2.86a72,72,0,0,1-40.66,0c-1.1-.31-2-.57-2-2.13.07-9.69,0-19.39.06-29.08a4.13,4.13,0,0,1,.22-.86h6.08c0,.83.12,1.67.12,2.51,0,7.31.05,14.62,0,21.93,0,1.69.55,2.36,2.18,2.7a66.93,66.93,0,0,0,27.44,0c1.67-.34,2.16-1.06,2.14-2.72-.08-7.23,0-14.46,0-21.69V3.27Z"/><path class="cls-2" d="M108.84,37.13V29.82c0-8.1,0-16.2,0-24.3a2.14,2.14,0,0,1,1.85-2.47c12.71-3.52,25.54-3.6,38.46-1.43,1.34.23,2,.75,1.88,2.17s0,2.83,0,4.48a16.65,16.65,0,0,1-2-.17,86.24,86.24,0,0,0-31-.23c-2.16.36-2.8,1.25-2.76,3.41.13,7.7,0,15.41.1,23.11,0,2.22-.62,3-2.8,2.77A30.73,30.73,0,0,0,108.84,37.13Z"/></g></g></svg>