<svg xmlns="http://www.w3.org/2000/svg" xmlns:xlink="http://www.w3.org/1999/xlink" viewBox="0 0 235.74 39.42"><defs><style>.cls-1{filter:url(#JGb7tH);}.cls-2{fill:#fff;}</style><filter id="JGb7tH"><feOffset dy="7.81" input="SourceAlpha"/><feGaussianBlur stdDeviation="6.69" result="blur"/><feFlood/><feComposite operator="in" in2="blur"/><feComposite in="SourceGraphic"/></filter></defs><g id="Layer_2" data-name="Layer 2"><g id="JGb7tH-2" data-name="JGb7tH" class="cls-1"><path class="cls-2" d="M214.71,24.29C216.9,16,219,8.1,221.1.15h14.64V39.23H225.12V15.41l-.37-.07c-.4,1.58-.82,3.15-1.2,4.73-1.44,6.05-2.84,12.1-4.34,18.13a1.93,1.93,0,0,1-1.38,1.11c-2,.13-4,0-6.06.08-1.07,0-1.42-.44-1.63-1.34q-2.4-10.11-4.84-20.2a2.4,2.4,0,0,0-.69-1.36V39.26H193.72c0-.63-.08-1.16-.08-1.7,0-11.89,0-23.79,0-35.68C193.6.44,194,0,195.42.05c3.82.1,7.64.08,11.46,0,1.18,0,1.57.44,1.84,1.51,1.77,7.2,3.6,14.38,5.42,21.57A7.94,7.94,0,0,0,214.71,24.29Z"/><path class="cls-2" d="M111.46.08V39.24H100.19V19.05l-.4-.12c-.3.47-.62.94-.91,1.42C95.43,26.29,92,32.22,88.55,38.18a2,2,0,0,1-2,1.2c-2.89-.06-5.78-.05-8.67,0-1.08,0-1.54-.23-1.54-1.44q.06-18.24,0-36.49c0-.77,0-1.39,1.08-1.38,3.37,0,6.75,0,10.42,0v20.5l.47.09,1-1.62c3.43-6,6.89-11.89,10.28-17.86A1.89,1.89,0,0,1,101.43.06C104.74.11,108.05.08,111.46.08Z"/><path class="cls-2" d="M114.34.18c7.17,0,14.18-.48,21.1.13S147.45,5,149,14c.93,5.32.85,10.68-1.35,15.76-2.7,6.22-7.77,9.12-14.32,9.39-6.15.25-12.32.12-18.48.15a1.81,1.81,0,0,1-.53-.19Zm11.89,19.49V24.9c0,4.94.45,5.27,5.47,4.34,3-.55,5.05-2.11,5.25-5.17a53.25,53.25,0,0,0-.24-9.53,4.71,4.71,0,0,0-4-4,48.82,48.82,0,0,0-5-.46c-1.12-.11-1.53.31-1.5,1.48C126.28,14.23,126.23,17,126.23,19.67Z"/><path class="cls-2" d="M52.15,39.4a16.86,16.86,0,0,1-14.59-8.54c-4.24-7-3.56-18.13,1.38-24.27A17.67,17.67,0,0,1,51.7.15,22.79,22.79,0,0,1,62.63,1.48a16.79,16.79,0,0,1,10.55,13c1,5.16.85,10.26-1.45,15C68.24,36.7,62,39.38,52.15,39.4Zm9.44-18.88c-.14-1.92-.17-3.29-.35-4.63-.48-3.61-2.55-5.9-5.62-6.34-3.57-.51-6.45.85-7.6,4A17.51,17.51,0,0,0,48,26c1.06,2.85,3.57,4.17,6.82,4a6,6,0,0,0,5.94-4.69A44.07,44.07,0,0,0,61.59,20.52Z"/><path class="cls-2" d="M171.69,39.4c-7.7,0-13.86-2.6-17.46-9.68a22.15,22.15,0,0,1-1.79-14C154.15,5.81,161,.2,171,.07a23.12,23.12,0,0,1,9,1.46A16.41,16.41,0,0,1,190.2,13.22a23.15,23.15,0,0,1-1.12,16.16C185.63,36.68,179.38,39.43,171.69,39.4ZM179,19.81a55.55,55.55,0,0,0-.91-5.61,6,6,0,0,0-6-4.69c-3.34-.16-5.86,1.24-6.88,4.15a18.22,18.22,0,0,0,0,12.19c1,2.85,3.48,4.27,6.71,4.15s5.34-1.68,6.13-4.67A53,53,0,0,0,179,19.81Z"/><path class="cls-2" d="M0,.14H12.3l6.1,24.33.4.05c.61-2.22,1.23-4.44,1.82-6.67,1.46-5.48,2.92-11,4.34-16.45A1.54,1.54,0,0,1,26.77.05c3.37.08,6.75,0,10.39,0C36.25,3,35.42,5.63,34.57,8.31c-3.09,9.66-6.21,19.3-9.23,29-.47,1.52-1,2.21-2.77,2.12-3.31-.17-6.64,0-10,0Z"/></g></g></svg>