<svg xmlns="http://www.w3.org/2000/svg" xmlns:xlink="http://www.w3.org/1999/xlink" viewBox="0 0 224.37 42.14"><defs><style>.cls-1{filter:url(#pQzOIr);}.cls-2{fill:#fff;}</style><filter id="pQzOIr"><feOffset dy="7.81" input="SourceAlpha"/><feGaussianBlur stdDeviation="6.69" result="blur"/><feFlood/><feComposite operator="in" in2="blur"/><feComposite in="SourceGraphic"/></filter></defs><g id="Layer_2" data-name="Layer 2"><g id="pQzOIr-2" data-name="pQzOIr" class="cls-1"><path class="cls-2" d="M0,27.85c2.43,0,4.87.09,7.3.08.86,0,1.24.17,1.32,1.17.24,2.9,2.57,5.21,5.75,5.95a14.1,14.1,0,0,0,7.78-.36,4.43,4.43,0,0,0,3.4-3.76,3.84,3.84,0,0,0-2.42-4.37c-2.5-1-5.13-1.68-7.69-2.51A82.65,82.65,0,0,1,7.3,21.33a9.29,9.29,0,0,1-5.84-9.45c.16-4.41,2.41-7.56,6.29-9.6A18.64,18.64,0,0,1,19.23.19c4.89.71,9.56,2.16,12.13,7A15.53,15.53,0,0,1,32.56,11a1.79,1.79,0,0,0,2.65,1.17c.24-.18.3-.7.31-1.06,0-2.2,0-4.39,0-6.58,0-.8.26-1.06,1-1,2,0,3.91,0,5.87,0,.79,0,1.06.27,1,1,0,2.2,0,4.39-.08,6.58,0,.88.19,1.25,1.11,1.22,1.55,0,3.1,0,4.82,0,0,1.33,0,2.55,0,3.77,0,.22-.59.57-.93.59-1.27.07-2.55.05-3.83,0-.76,0-1.08.24-1.07,1,0,5,0,10.06,0,15.08,0,1.75.74,2.45,2.49,2.54,1,.06,2.07,0,3.31,0,0,1.78,0,3.56,0,5.33,0,.2-.46.52-.73.56a19.08,19.08,0,0,1-9.1-.54,5.76,5.76,0,0,1-3.9-5.58V18.58c0-1.9,0-1.9-1.85-1.89H27c-2.69,0-2.69,0-2.7-2.63a15.72,15.72,0,0,0-.06-1.68,5.25,5.25,0,0,0-4-5,12.17,12.17,0,0,0-7.41,0,4.14,4.14,0,0,0-2.82,5,3.11,3.11,0,0,0,2.4,2.42c3.51,1,7.05,1.91,10.54,3a32.27,32.27,0,0,1,5.95,2.38c6.54,3.58,6.51,12.15,2.3,16.79-2.7,3-6.25,4.19-10,4.77A23.94,23.94,0,0,1,10.05,41c-4.7-1.51-8-4.42-9.54-9.22A8.47,8.47,0,0,0,0,30.72Z"/><path class="cls-2" d="M114.32,21.66c2.22-6.46,6.75-9.95,13.44-10.2,6.46-.24,11.72,1.95,14.32,8.66.62-1.37,1-2.51,1.62-3.55,1.62-2.79,4.33-4.06,7.32-4.67a23.1,23.1,0,0,1,12.83.8,6.93,6.93,0,0,1,4.84,6.68c0,3.75.05,7.5,0,11.25,0,1,.34,1.33,1.32,1.3,1.76-.05,3.52,0,5.28,0,.61,0,1,.15,1.1.8.47,2.44,2.28,3.48,4.46,3.92A7.45,7.45,0,0,0,186,36a3.31,3.31,0,0,0,2-3,2.85,2.85,0,0,0-2.28-2.63c-2.74-.83-5.55-1.46-8.3-2.28a23.63,23.63,0,0,1-4.56-1.72c-4-2.17-4-6.65-2.41-9.77a8,8,0,0,1,5-4c5.56-1.77,11-1.82,16.08,1.42,2.28,1.45,3.28,3.77,3.57,6.58-.47,0-.85.06-1.23.06-1.32,0-2.64,0-3.95,0s-2.53.19-2.72-1.7c-.05-.55-.83-1.19-1.43-1.49a8.48,8.48,0,0,0-6.61-.37,2.26,2.26,0,0,0-1.69,2,2.14,2.14,0,0,0,1.2,2.5,58.61,58.61,0,0,0,5.64,1.79c3.26.85,6.68,1.25,9.4,3.53.43.36.85.74,1.55,1.35-.22-5.87,1.52-10.62,6.08-14A14.74,14.74,0,0,1,213,11.65c7.7,1.36,12,9.33,11.36,16.81-.44,0-.9.06-1.36.06-6.24,0-12.47,0-18.7,0-1,0-1.31.29-1.15,1.32.46,3,1.77,5.37,4.94,6s6.68.21,8.57-2.93a1.08,1.08,0,0,1,.71-.53c2.06,0,4.12,0,6.21,0a12.1,12.1,0,0,1-9.17,9.08c-8,1.69-14.39-.62-18.26-8.47a6,6,0,0,0-.41.95c-.8,3.86-3.36,6-7,7.1a19.91,19.91,0,0,1-14.67-.87,8.73,8.73,0,0,1-4.4-4.53c-.16-.35-.37-.68-.56-1l-.31,0a28.63,28.63,0,0,0,0,3.21,31.66,31.66,0,0,0,.75,3.32h-6c-1.79,0-1.79,0-2.2-1.76-.23-1-.7-.71-1.27-.27a14.16,14.16,0,0,1-11.66,2.52,8.24,8.24,0,0,1-7.11-6.91c-3.37,5.76-8.43,7.62-14.4,7.13-6.14-.51-10.33-3.91-12.62-9.72l-.31.18c0,.45-.11.9-.11,1.35,0,2.12,0,4.23,0,6.34,0,.91-.3,1.18-1.18,1.16-1.87,0-3.75,0-5.63,0-.85,0-1.1-.3-1.07-1.14.06-1.87,0-3.75,0-5.62a3,3,0,0,0-.29-1.26c-2,4.17-4.93,7.27-9.52,8.32a15.89,15.89,0,0,1-12.54-1.87c-4-2.53-5.87-6.35-6.47-11H56.26a6.4,6.4,0,0,0,5.12,7.31,8.63,8.63,0,0,0,6.55-1.2,3.3,3.3,0,0,0,1.2-1.14c.55-1.28,1.52-1.4,2.71-1.34,1.57.07,3.15,0,4.94,0-1.26,3.55-3.15,6.22-6.28,7.93C64.82,43.31,56.11,42.39,51.68,37a14.91,14.91,0,0,1-3.41-8.13,16,16,0,0,1,3.09-11.83,14.09,14.09,0,0,1,13.27-5.54c6.55.67,10.43,4.59,12.1,10.84a2.75,2.75,0,0,0,.17.45,5.56,5.56,0,0,0,.4.53c2-6.93,6.24-11.27,13.43-11.86s12.21,3,14.79,9.84l.29-.09a10.86,10.86,0,0,0,.18-1.38c0-5.86,0-11.73,0-17.59,0-.85.13-1.22,1.09-1.19,1.88.08,3.76.06,5.63,0,.9,0,1.17.29,1.16,1.17,0,5.91,0,11.81,0,17.72,0,.49.06,1,.09,1.49Zm24,8.47c1.94.26,3.72.19,4.55-2,0-.07.11-.12.16-.18,2-2.33,4.88-2.87,7.72-3.35,2.63-.45,5.27-.81,7.89-1.31a2.52,2.52,0,0,0,2.13-2.16,3.41,3.41,0,0,0-1.31-3.61,5.88,5.88,0,0,0-9.11,3.67c-.17.93-.57,1.13-1.43,1.13q-6.53-.06-13.06,0a1.32,1.32,0,0,1-1.52-1.07,5.38,5.38,0,0,0-5.16-3.93,5.89,5.89,0,0,0-5.91,2.89,13.22,13.22,0,0,0-.88,11.31c.88,2.57,2.54,4.38,5.54,4.52s5.37-.87,6.2-3.64c.69-2.34,2-2.43,3.83-2.24C138.06,30.14,138.18,30.13,138.3,30.13Zm-36,2.14h1.08c2.89-.06,2.56.55,2.6-2.74,0-.81-.37-1-1.11-1q-9.34,0-18.68,0c-.92,0-1.24.33-1.1,1.2.45,2.78,1.64,5,4.47,6s6.72.19,8.25-2a3.25,3.25,0,0,1,3.42-1.47A9.53,9.53,0,0,0,102.3,32.27Zm58.32-4.88c-2.22.4-4.36.74-6.48,1.17a12.72,12.72,0,0,0-2.84.91,3.55,3.55,0,0,0-2.06,4.05,3.05,3.05,0,0,0,2.81,2.95,10.5,10.5,0,0,0,4.36,0C160.29,35.41,161.35,32.1,160.62,27.39Zm-98-3.75c2,0,3.91,0,5.87,0,.71,0,1-.28.78-.94-.81-3.25-2.53-5.3-6-5.44a6.53,6.53,0,0,0-6.92,5c-.23,1-.09,1.4,1,1.35C59.06,23.59,60.82,23.64,62.58,23.64Zm153.62-.08c-.47-4.27-2.53-6.2-6.54-6.28a6.51,6.51,0,0,0-6.43,5c-.22,1,0,1.36,1.08,1.35,3.59-.05,7.18,0,10.77,0C215.43,23.64,215.78,23.59,216.2,23.56Zm-118,0a6.81,6.81,0,0,0-2.34-5A6.85,6.85,0,0,0,85.2,22.42c-.2.87,0,1.24,1,1.23,3.72,0,7.43,0,11.14,0C97.57,23.63,97.84,23.57,98.18,23.53Z"/></g></g></svg>