<svg xmlns="http://www.w3.org/2000/svg" xmlns:xlink="http://www.w3.org/1999/xlink" viewBox="0 0 233.82 55.3"><defs><style>.cls-1{filter:url(#YG3njg);}.cls-2{fill:#fff;}</style><filter id="YG3njg"><feOffset dy="7.81" input="SourceAlpha"/><feGaussianBlur stdDeviation="6.69" result="blur"/><feFlood/><feComposite operator="in" in2="blur"/><feComposite in="SourceGraphic"/></filter></defs><g id="Layer_2" data-name="Layer 2"><g id="YG3njg-2" data-name="YG3njg" class="cls-1"><path class="cls-2" d="M154.91,45.15h12.27v10c-.74,0-1.46.1-2.18.09l-68.4,0c-3.82,0-7.65-.17-11.45.09-5.85.4-11.2-4-13-9.71a11.84,11.84,0,0,1-.72-3.28c-.07-7.25,0-14.5,0-21.89H83.85v2c0,5.88,0,11.76,0,17.64,0,3.57,1.44,5,5,5,1.69,0,3.39-.1,5.07,0s1.89-.52,1.87-2c-.06-6.94,0-13.88,0-20.83V20.4H108V54.55l.48.15,13.58-24.07H110.22V20.4h70.42V55.12H169.05V22.22l-.6-.18Zm-25.89,0c4.14,0,7.91,0,11.69,0,.39,0,.86-.64,1.12-1.08,1.31-2.27,2.58-4.56,3.84-6.86,1.13-2,2.23-4.11,3.54-6.53-4.12,0-7.79,0-11.45,0a1.45,1.45,0,0,0-1,.68C134.21,35.81,131.71,40.32,129,45.14Z"/><path class="cls-2" d="M67,12.48c-3.23,1.77-6.32,3.52-9.49,5.11-.41.2-1.38-.25-1.82-.68a19.53,19.53,0,0,0-9.79-5.21c-8.56-1.7-18.25,5.83-19,14.51A16.15,16.15,0,0,0,43.78,44.09c4.3-.21,8.62,0,13.17,0V20.34H69.2V55.23H67.07c-8.52,0-17-.24-25.55.06-10.79.37-20.18-6.59-24.4-16.39C9.24,20.61,22.32,3.13,38.34.46A28.65,28.65,0,0,1,67,12.48Z"/><path class="cls-2" d="M218.67,55.14h-12v-2q0-9.2,0-18.38c0-2.7-1.44-4.13-4.17-4.15-2.26,0-4.51,0-6.76,0a2.84,2.84,0,0,0-.7.24v24.2H183V20.39a12,12,0,0,1,1.33-.13c7.88,0,15.77-.06,23.66,0A11,11,0,0,1,217,24.77a7.46,7.46,0,0,1,1.58,3.91C218.73,37.42,218.67,46.16,218.67,55.14Z"/><path class="cls-2" d="M.89,20.35H12.67v34.7H.89Z"/><path class="cls-2" d="M221.46,20.3h11.38V55.06H221.46Z"/><path class="cls-2" d="M168,6.9A6.81,6.81,0,0,1,174.84,0a7,7,0,1,1,0,14A6.81,6.81,0,0,1,168,6.9Z"/><path class="cls-2" d="M0,7A6.85,6.85,0,0,1,7,0,6.91,6.91,0,0,1,13.9,7.13a6.88,6.88,0,0,1-7,6.85A6.83,6.83,0,0,1,0,7Z"/><path class="cls-2" d="M219.88,7a7,7,0,1,1,13.93.12A7,7,0,0,1,219.88,7Z"/></g></g></svg>