<svg id="Layer_1" data-name="Layer 1" xmlns="http://www.w3.org/2000/svg" viewBox="0 0 467.25 140.63"><defs><style>.cls-1{fill:#fff;}.cls-2{fill:#1c1c1c;}</style></defs><path class="cls-1" d="M53.32,41c0,7.4,0,14.8,0,22.2,0,3.81-.23,4-4.14,4-8.46.07-6.88.22-6.92-6.85-.06-13.08-.21-26.16.07-39.23.14-6.39-3.28-10.38-10-10.31-3.11,0-6.21,0-9.32,0C14.46,11,11.87,13.52,11.84,22c0,12.91,0,25.81,0,38.72,0,.86,0,1.72,0,2.58-.09,3.82-.19,3.9-4.16,4-9.28.27-7.54-1.15-7.54-7.12,0-12,.1-24.09,0-36.14A39.24,39.24,0,0,1,2.15,11.88a13.36,13.36,0,0,1,8.62-9,46.92,46.92,0,0,1,32.39,0c7.77,2.85,9.92,9.5,10.12,17C53.46,26.9,53.32,34,53.32,41Z"/><path class="cls-1" d="M27,140.32c-1.39,0-2.77,0-4.15,0-6.05,0-8.42-1.87-9.73-7.74-1.76-7.87-3.37-15.78-5.09-23.66C5.68,98,3.74,87,.77,76.29.41,75,.73,74.37,2,74.13c.17,0,.33-.08.5-.1,7.38-1.1,8.25-.45,9.86,6.88q5,22.89,10.16,45.74c.87,3.93,1.55,4.26,5.09,4.27,3.15,0,3.55-2.13,4-4.35q2.73-12.31,5.41-24.64c1.75-8.06,3.47-16.12,5.24-24.17.82-3.69.87-3.68,4.81-3.75,6.58-.12,6.51-.14,5.12,6.24-3.71,16.94-7.33,33.9-11,50.85A21.67,21.67,0,0,1,40,135.55a7.34,7.34,0,0,1-7.29,4.77C30.81,140.29,28.91,140.32,27,140.32Z"/><path class="cls-2" d="M251.76,86.62c2.06-2.37,4.72-1,7.11-1,1,0,.95,1.22.95,2,0,2.93,0,5.85,0,8.78,0,12.56-.07,25.13.05,37.69,0,2.49-.72,3.2-3.2,3.27-3.06.09-4.87-.71-6.54-3.55-6.25-10.65-12.89-21.07-19.38-31.58-2.88.47-1.37,2.71-1.39,4-.16,8.68,0,17.36-.11,26,0,1.65.54,3.41-.56,4.95-7.09.09-7.09.09-7.09-7,0-13.42,0-26.85,0-40.28,0-1.5-1.14-3.6,1.15-4.49,2.65-1,6.32,0,7.7,2.18,2.95,4.63,5.84,9.31,8.7,14,3.84,6.29,7.63,12.61,11.44,18.91,1.26.34,1.45-.51,1.44-1.38C251.93,108.37,252.61,97.49,251.76,86.62Z"/><path class="cls-2" d="M312.76,111.09c0-7.57.05-15.13,0-22.7,0-2.14.54-3.06,2.88-3,8.79.11,17.59,0,26.38.07,3,0,3,.13,3,3.85,0,3.43,0,3.5-3.31,3.53-5.69.06-11.38,0-17.07,0-5,0-4.39.16-4.37,4.59,0,1.72,0,3.44,0,5.16,0,5.09-.65,4.88,5.13,4.87,4.31,0,8.62,0,12.93,0,3.37,0,3.37.09,3.38,3.46,0,3.55,0,3.62-3.17,3.67-4.82.06-9.65,0-14.48,0-3.59,0-3.69.17-3.78,3.84-.07,2.75.08,5.51,0,8.25-.11,2.48,1,3.33,3.38,3.3,6.21-.1,12.42-.05,18.63,0,1.13,0,2.68-.31,2.68,1.5s.76,3.8-.55,5.43c-.31.39-1.26.39-1.91.39-9,0-17.94,0-26.9.07-2.37,0-2.85-1-2.83-3.06C312.81,126.57,312.76,118.83,312.76,111.09Z"/><path class="cls-2" d="M270.34,110.69c0-2.93.06-5.86,0-8.78-.17-7.38,6.07-16.06,16.2-17.16a18.1,18.1,0,0,1,19,12.76c.53,1.75.71,3-1.8,2.73a20,20,0,0,0-3.1,0,3.39,3.39,0,0,1-3.63-2c-2.57-4.6-6.16-6.12-10.74-5.27-4.11.76-7,4.18-7.84,9.08a59.45,59.45,0,0,0,.06,19.47c.71,4.54,3.65,6.88,7.64,8.14,3.74,1.19,7.33-.1,9.09-3.2,2.33-4.1,5.69-3.67,9.27-3.66,1.58,0,1.48.72,1.16,2-1.86,7.17-8.82,12.82-15.57,12.88-12.17.09-19.45-6.48-19.78-18.64-.07-2.76,0-5.51,0-8.27Z"/><path class="cls-2" d="M141.91,111a57,57,0,0,0,.68,10.26c.66,4.8,3.7,7.25,7.91,8.48a8,8,0,0,0,9.39-3.78c2-3.47,4.83-3.11,7.88-3.14,2.13,0,2.27,1.28,1.81,2.69-1.56,4.78-4.42,8.8-9.11,10.64-13.19,5.18-25.63-2.66-26-15.79-.16-6.19-.2-12.4,0-18.59.33-8.77,6.45-15.35,15.28-16.87,7.77-1.34,15.87,3.29,19.17,10.9a7.34,7.34,0,0,1,.77,3c0,.5,0,1.19-.62,1.24-1.87.16-3.76.17-5.64.28-1.59.08-1.83-1.2-2.47-2.2-2.88-4.45-6.38-6.2-10.83-5s-6.83,4.13-7.69,8.71A59.69,59.69,0,0,0,141.91,111Z"/><path class="cls-2" d="M405.88,115.13c0-6.36,0-12.72,0-19.08,0-3.9-.08-3.92-4.14-4-2.41,0-4.83-.13-7.23,0s-3-.95-2.85-3.07c.1-1.94-.22-3.69,2.81-3.65,10.16.15,20.33.11,30.5,0,2.51,0,2.71,1.25,2.74,3.21,0,2.17-.15,3.72-3,3.5-2.4-.19-4.83-.08-7.24,0-4,.08-4.07.11-4.08,4,0,11.17,0,22.35,0,33.52,0,1.2,0,2.4,0,3.61-.05,4.23-.06,4.1-4.27,4.16-2.41,0-3.36-.59-3.3-3.17C406,127.85,405.88,121.49,405.88,115.13Z"/><path class="cls-2" d="M228.71,137.28q.07-16,.17-31.95c0-1.19-.22-2.54.25-3.53s1.34-.58,1.64.48c-1.66.9-.84,2.46-.85,3.69-.08,9.27,0,18.55-.08,27.82C229.83,135,230.66,136.64,228.71,137.28Z"/><path class="cls-2" d="M251.76,86.62c.85.54.86,1.37.86,2.25q0,15.15,0,30.3a3.57,3.57,0,0,1-.26,2c-.76,1-1.38.54-1.68-.51,1.71-.86.85-2.43.86-3.64C251.66,106.87,251.69,96.75,251.76,86.62Z"/><path class="cls-1" d="M119.86,34c0-5,.06-10,0-15-.12-9.53-4.61-15.06-13.77-17.3a55.78,55.78,0,0,0-26.6,0C70.88,3.82,66.18,8.86,66,17.59q-.42,16.77,0,33.57c.24,9,5.52,14.61,14.55,16a80.27,80.27,0,0,0,24.22,0c9.69-1.47,15-7.45,15.12-17.16C119.93,44.7,119.86,39.36,119.86,34Zm-11,14.79c-.16,5.72-2.78,8.59-8.54,8.93a129.59,129.59,0,0,1-15,0c-5.82-.34-8.69-3.51-8.75-9.38q-.16-13.93,0-27.89c.08-6.11,3-9.17,9.2-9.48a135.81,135.81,0,0,1,14,0c6.34.31,9,3.14,9.13,9.41.1,4.65,0,9.3,0,14h0C108.9,39.18,109,44,108.87,48.82Z"/><path class="cls-1" d="M119.83,90.77c-.2-9-5.19-15-14-16.55a74.74,74.74,0,0,0-25.71,0c-9.07,1.55-14,7.09-14.22,16.25q-.37,16.52,0,33c.21,8.77,4.79,14.18,13.36,15.88a70.64,70.64,0,0,0,26.21.15c9.58-1.71,14.22-7.57,14.35-17.23.07-5,0-10,0-15C119.86,101.78,120,96.28,119.83,90.77Zm-11,30.54c-.15,5.51-2.59,8.28-8,8.85a81.77,81.77,0,0,1-16,0c-5.3-.5-8.12-3.53-8.2-8.84q-.22-14.46,0-28.93c.08-5.32,2.9-8.3,8.18-8.86a76.59,76.59,0,0,1,16,0c5.44.58,7.93,3.35,8.08,8.85.14,4.81,0,9.64,0,14.46S109,116.49,108.86,121.31Z"/><path class="cls-2" d="M466.24,98a10.46,10.46,0,0,0-1-2.88A18.15,18.15,0,0,0,445.73,85c-9.1,1.63-15.15,10.17-14.76,17.27.14,2.74,0,5.5,0,8.24h0c0,2.75,0,5.5,0,8.25.29,12.66,7.88,19.44,20.45,18.8,6.1-.31,13.87-6.52,14.85-13A89.5,89.5,0,0,0,466.24,98Zm-7.36,22c-.34,5.62-4.67,10-9.76,10s-9-3.64-10-9.14a56.32,56.32,0,0,1,.09-19.89,10,10,0,0,1,19.67.49,11.27,11.27,0,0,1,.07,1.54c0,2.74,0,5.49,0,8.23h0C458.91,114.12,459.06,117,458.88,120Z"/><path class="cls-2" d="M211.2,120.65c-.17-3.08,0-6.18,0-9.27h0c0-3.43.11-6.87,0-10.3-.34-8.46-7.69-15.7-16.28-16.36-9-.69-18,5.77-19.08,14.36a81.66,81.66,0,0,0,0,23.52c1.62,10.24,8.62,15.24,19.86,15C202.94,137.38,211.67,129,211.2,120.65Zm-8.15.38c-1,5.4-5.12,9.12-10.2,8.94-4.51-.16-9.29-4.4-9.55-9.23a158.64,158.64,0,0,1,0-19,9.4,9.4,0,0,1,9.58-8.9c5.38-.11,9,3.19,10.19,8.79a52.63,52.63,0,0,1,.65,9.19A50,50,0,0,1,203.05,121Z"/><path class="cls-2" d="M388.63,99.49c-.39-7.79-5.86-13.63-13.68-13.94-6-.25-12.05-.16-18.08-.13-3.39,0-3.46.1-3.48,3.39-.05,7.39,0,14.77,0,22.16v18.55a42.22,42.22,0,0,1,0,4.64c-.29,2.53.77,3.27,3.22,3.21,5.76-.13,4.84,0,4.85-4.61,0-3.61,0-7.22,0-10.82,0-5.58-.39-5.1,4.87-5.11l8.79,0c3.86,0,6.79-1.84,9.44-4.52C388.1,108.65,388.86,104.31,388.63,99.49Zm-15.19,9.92a21,21,0,0,1-3.63,0c-2.69-.27-6.2,1.3-7.85-.78-1.3-1.64-.53-4.92-.68-7.39.15-2.66-.64-5.93.66-7.59,1.63-2.1,5.15-.54,7.83-.81a22,22,0,0,1,3.63,0c4.75.35,7.66,3.36,7.75,8C381.23,105.62,378.2,109,373.44,109.41Z"/></svg>