<svg xmlns="http://www.w3.org/2000/svg" viewBox="0 0 200 200"><defs><style>.cls-1{fill:#a9c62c;}</style></defs><g id="Layer_2" data-name="Layer 2"><g id="ySVXkJ"><path class="cls-1" d="M79.75,91.8c2.48-3.06,5.63-4,9.35-3.9,4.46.15,8.92,0,13.39,0,7.16,0,10.49,2.75,12,10,.77.09,1.61.19,2.45.27,4.22.39,7.42,3.35,7.54,7.58.21,6.86.13,13.72,0,20.58,0,2.77-1.47,4-4.33,4.22-.75.06-1.51,0-2.3,0-1,1.34.16,4-2.51,4-2.48,0-1.72-2.3-2.27-3.81H46.26c-.76,1.38.1,3.75-2.34,3.83s-1.64-2.34-2.45-3.84c-.61-.05-1.33-.13-2-.17-3.46-.18-4.57-1.3-4.63-4.85,0-3.27,0-6.53,0-9.8,0-3,0-6.1,0-9.14.1-5.41,2.72-8.16,8.12-8.62.53,0,1.06-.11,1.68-.18.27-1,.5-1.94.77-2.86A9.79,9.79,0,0,1,54.75,88c5.55-.07,11.11,0,16.66,0C74.73,88,75.79,88.51,79.75,91.8ZM38.83,117.4h81.65c0-3.91.08-7.28,0-10.64-.1-2.94-1.52-4.35-4.41-4.64a21.64,21.64,0,0,0-2.28,0H45.54a19.62,19.62,0,0,0-3.25.18c-2.13.37-3.35,1.56-3.43,3.71C38.73,109.65,38.83,113.33,38.83,117.4Zm81.5,4.22H39v4.78h81.53c0-1.17,0-2.13,0-3.08C120.5,122.8,120.4,122.29,120.33,121.62ZM77.25,98c-.16-3.79-2.25-6-5.87-6-5.43-.09-10.86-.08-16.29,0-3.59,0-5.49,2-6,6Zm4.31,0H110c-.23-3.85-2.32-6-5.93-6-5.21-.08-10.43,0-15.65,0C84.41,92,82.7,93.42,81.56,98Z"/><path class="cls-1" d="M142.37,106.28c-3.26-6.27-3.14-12.11-.49-18.46-1.71,0-3.38.05-5,0-3-.11-3.72-1.22-2.4-3.89,2.7-5.45,5.51-10.84,8.14-16.32a3.51,3.51,0,0,1,3.56-2.17c8-.25,8-.28,11.91,6.82,2,3.61,4,7.2,6,10.81s1.41,4.73-2.95,4.76c-1.6,0-3.2,0-4.94,0,2.63,5.82,2.56,10-.25,18.45,1.37,0,2.65,0,3.92,0,4.19,0,5.34,1.19,5.37,5.46,0,4.46,0,8.92,0,13.38,0,3.87-.32,4.31-3.86,5.92-.44,1.35.3,3.64-2.22,3.56-2.36-.07-1.75-2.3-2.17-3.82H141.15c-.62,1.42.19,3.95-2.46,3.83-2.28-.1-1.62-2.15-2-3.7-3.17-.67-4-2.89-3.92-6,.16-4.57,0-9.14.06-13.71,0-3.62,1.33-4.87,4.91-4.94C139.14,106.25,140.55,106.28,142.37,106.28Zm18.71,4.22H137v15.91h24Zm-1.25-26.81c-2-3.66-4.17-6.83-5.59-10.29-1.53-3.75-4-4.65-7.62-3.92a6.4,6.4,0,0,0-.6.24c-2.18,4.38-4.48,9-7,14Zm-10.92,22.66c4.4-2.7,5.53-5.3,5.15-11.49-.25-4.11-1.1-4.93-5.1-4.9-3.58,0-4.58.93-4.91,4.51a28.25,28.25,0,0,0-.13,3.56A9.43,9.43,0,0,0,148.91,106.35Z"/><path class="cls-1" d="M148.79,120.44a8.67,8.67,0,0,1-2.89-.08,3.24,3.24,0,0,1-1.77-1.86c-.3-1.12.6-1.83,1.71-1.86a51.86,51.86,0,0,1,6.48.07c.61.06,1.64,1.13,1.57,1.59a2.88,2.88,0,0,1-1.56,2,12.26,12.26,0,0,1-3.54.09Z"/></g></g></svg>