<svg xmlns="http://www.w3.org/2000/svg" viewBox="0 0 200 200"><defs><style>.cls-1{fill:#a9c62c;}</style></defs><g id="Layer_2" data-name="Layer 2"><g id="CMLpHp"><path class="cls-1" d="M54.87,123.46c-3.18-.28-5.84-1.34-7.71-3.72a13.66,13.66,0,0,1-2.25-4.16c-2.81-8.68-5.5-17.39-8.21-26.1-1.31-4.18-.29-8.09,2.74-10.64s7-3,11-.91c.11,0,.24.08.52.18,0-1.25,0-2.43,0-3.6a10.6,10.6,0,0,1,10.74-10.7q38.27,0,76.51,0a10.6,10.6,0,0,1,10.68,10.63c0,1.19,0,2.37,0,3.62a26.44,26.44,0,0,1,3.16-1.19,9.42,9.42,0,0,1,11.36,11.78c-2.73,9.25-5.65,18.45-8.65,27.63-1.46,4.46-4.91,6.65-9.69,7.2.33,2.09.65,4.16,1,6.23.2,1.23.44,2.44.63,3.67.27,1.7-.59,2.81-2.3,2.8-6.11-.07-4.54.81-7.79-4-1.79-2.64-3.51-5.33-5.34-7.94a2.21,2.21,0,0,0-1.57-.83q-29.73-.06-59.47,0a1.77,1.77,0,0,0-1.71.91c-2.28,3.49-4.63,6.93-6.91,10.42a2.84,2.84,0,0,1-2.75,1.47c-1.11-.06-2.22,0-3.33,0-1.79,0-2.65-1.09-2.35-2.87C53.75,130.08,54.3,126.85,54.87,123.46ZM141,97.17c.27-.82.44-1.41.65-2a46.45,46.45,0,0,0,3.09-19.75c-.28-4.94-2.51-7.38-7.51-7.38H62.75c-.45,0-.89,0-1.33,0a6.4,6.4,0,0,0-6.15,6.16c0,1.2.07,2.4,0,3.59A33.48,33.48,0,0,0,57.5,92.63c.55,1.42.93,2.91,1.41,4.43,3.2-3,4.28-3.45,8.67-3.45H93.24a8.78,8.78,0,0,1,5.78,2l1,.82a9.53,9.53,0,0,1,7.43-2.83q12.63.11,25.27,0C136,93.55,138.76,94.38,141,97.17Zm-41.07,22h44.3c3.64,0,5.77-1.58,6.86-5.09q1.26-4,2.5-8c1.88-6,3.74-12,5.64-18a5.32,5.32,0,0,0-.87-5.38,4.9,4.9,0,0,0-4.87-1.8,5.23,5.23,0,0,0-4.23,3.94q-3.21,10.55-6.46,21.08c-.71,2.31-1.06,2.57-3.48,2.57H60.71c-2.53,0-2.84-.23-3.57-2.62-2.15-7-4.28-14-6.44-20.94-.91-3-3.44-4.6-6.14-4-3.26.7-4.89,3.75-3.81,7.21q4,12.93,8.09,25.85c1.15,3.67,3.2,5.17,7.06,5.17Zm-2.09-15c0-.7,0-1.31,0-1.92a4.26,4.26,0,0,0-4.48-4.4H66.1a4.29,4.29,0,0,0-3.49,1.61c-1.16,1.39-1,3-.89,4.72Zm40.32,0c.81-4.21-1.58-6.45-5.25-6.38-8.59.17-17.2,0-25.8.06-3.79,0-5.79,2.63-4.8,6.32Zm-79,19.28-1.36,8.36.49.2L64,123.47Zm81.59,0H136c2,3,3.84,5.76,5.72,8.56l.47-.24C141.68,129.06,141.23,126.29,140.77,123.5Z"/><path class="cls-1" d="M72.2,82.91H68.11V78.77H72.2Z"/><path class="cls-1" d="M87.14,78.77v4.1H83v-4.1Z"/><path class="cls-1" d="M102,82.91H97.93V78.77H102Z"/><path class="cls-1" d="M116.91,82.9h-4.09V78.81h4.09Z"/><path class="cls-1" d="M131.86,78.8v4.08h-4.14V78.8Z"/></g></g></svg>