<svg xmlns="http://www.w3.org/2000/svg" viewBox="0 0 200 200"><defs><style>.cls-1{fill:#a9c62c;}</style></defs><g id="Layer_2" data-name="Layer 2"><g id="_2p31dA" data-name="2p31dA"><path class="cls-1" d="M50.13,147.14v-.59a2.28,2.28,0,0,1,2.7-1.76c1.41.07,2.82,0,4.13,0V109.43c-1.47,0-2.86-.05-4.24,0A2.42,2.42,0,0,1,50.13,108V97.85a2.64,2.64,0,0,1,2.64-1.39c6,0,11.95,0,17.92,0h1V91.4H59a5.9,5.9,0,0,1-6.2-6.17q0-13.94,0-27.85A5.83,5.83,0,0,1,59,51.24q18.65,0,37.3,0a5.87,5.87,0,0,1,6.23,6.21q0,13.88,0,27.76a5.91,5.91,0,0,1-6.18,6.19H83.58v5h20c.93-5.88,3.25-8.67,7.32-8.91A7.49,7.49,0,0,1,116,88.88c2.51,1.88,3.33,4.58,3.49,7.53h3.83V74.16c0-1.92.66-2.57,2.59-2.57q7.15,0,14.31,0c2,0,2.64.65,2.64,2.61V96.33c.16.08.22.12.27.12l4.29,0c1.73,0,2.44.7,2.44,2.4,0,2.67,0,5.33,0,8,0,1.91-.65,2.55-2.59,2.56h-4v35.38c1.62,0,3.17,0,4.72,0a2,2,0,0,1,0,3.91c-.26,0-.52,0-.78,0q-47.23,0-94.47,0A2.36,2.36,0,0,1,50.13,147.14Zm10.81-37.71c0,.4,0,.63,0,.85q0,16.36,0,32.72c0,.26-.07.6.07.76.33.37.77.94,1.16.92s.95-.49,1.29-.89c.18-.22.1-.69.1-1,0-3.05,0-6.1,0-9.15a1.85,1.85,0,0,1,1.92-2,1.91,1.91,0,0,1,2,2c0,3.69,0,7.38,0,11.1h44.67V109.51H67.5c0,.27,0,.46,0,.66,0,2.46,0,4.93,0,7.39a2,2,0,0,1-3.92,0c0-.91,0-1.82,0-2.73v-5.39c-.43,0-.75,0-1.06,0C62,109.42,61.5,109.43,60.94,109.43Zm-4.19-31.9H98.57c0-.18,0-.28.05-.37,0-6.59,0-13.18,0-19.77,0-1.47-.81-2.21-2.35-2.21H59.16c-1.72,0-2.41.71-2.41,2.44,0,4.61,0,9.22,0,13.83ZM54.12,105.4h91.74v-4.9H54.12Zm44.5-23.76H56.76c0,1.37,0,2.67,0,4a1.84,1.84,0,0,0,1.63,1.78,6.47,6.47,0,0,0,1.16.08H95.77a7.87,7.87,0,0,0,1,0,2,2,0,0,0,1.87-2C98.65,84.19,98.62,83,98.62,81.64Zm40.53,51.92H116.24v11.17h22.91Zm-23-16.11h23v-7.94h-23Zm23,12v-7.94H116.23v7.94Zm-.27-33V83.27H127.34V96.45Zm0-20.79H127.32v3.45H138.9ZM107.64,96.4h7.79A4.15,4.15,0,0,0,113.62,92a3.7,3.7,0,0,0-4.13,0A4.08,4.08,0,0,0,107.64,96.4Zm-31.81,0H79.5V91.5H75.83Z"/><path class="cls-1" d="M63.54,125.45a1.89,1.89,0,0,1,2-1.91,1.94,1.94,0,0,1,1.91,1.93,2,2,0,0,1-2,2A1.94,1.94,0,0,1,63.54,125.45Z"/><path class="cls-1" d="M129.63,139.16a1.94,1.94,0,0,1-2,1.94,2,2,0,0,1-1.91-1.94,1.94,1.94,0,0,1,2-2A1.9,1.9,0,0,1,129.63,139.16Z"/><path class="cls-1" d="M127.67,115.39a1.9,1.9,0,0,1-2-2,2,2,0,0,1,3.92,0A1.88,1.88,0,0,1,127.67,115.39Z"/><path class="cls-1" d="M129.63,125.48a1.94,1.94,0,0,1-2,2,2,2,0,0,1-1.94-2,1.93,1.93,0,0,1,1.94-1.89A1.89,1.89,0,0,1,129.63,125.48Z"/></g></g></svg>